<svg xmlns="http://www.w3.org/2000/svg" viewBox="100 200 480 360">
  <defs>
    <linearGradient id="SVGID_1_" gradientUnits="userSpaceOnUse" x1="135.4045" y1="267.5062" x2="570.781" y2="473.7372">
			<stop  offset="0.1651" style="stop-color:#79B6E3"/>
			<stop  offset="0.2775" style="stop-color:#73ACDD"/>
			<stop  offset="0.4872" style="stop-color:#6593CD"/>
			<stop  offset="0.7688" style="stop-color:#4F70B6"/>
			<stop  offset="1" style="stop-color:#3C53A4"/>
		</linearGradient>
  </defs>
  <style>.st0{fill:url(#SVGID_1_);stroke:#262262;stroke-width:6;stroke-miterlimit:10;}</style>
  <path class="st0" d="M509.79,360.43c-18.13-32.01,2.87-38.84,7.04-69.08c1.98-21.65-21.12-62.36-35.34-66.8c-8,12.44,4.03,59.24-14.14,66.93c-10.63,4.51-28.72-7.62-41.94-16.49c-18.77-12.58-25.86-24.35-27.12-20.9c-3.02,8.24-2.93,43.35,25.11,64.53c22.85,17.26,46.05,9.53,54.25,24.54c7.61,13.93-3.44,36.86-19.08,46.36c-25.75,15.63-75.11,1.64-119.78-39.07c-0.51-0.47-0.97-1.01-1.36-1.58c-7.49-11.2-13.46-19.81-21.41-28.87c0.85-4.65,2.42-11.55,5.56-19.49c5.24-13.28,15.59-20,13.26-22.61c-10.59,1-36.77,8.97-45.69,17.08c-51.2-39.31-131.91-26.73-169.14,37.13c-32.28,55.38-14.92,136.89,55.9,160.73c57.73,19.43,107.21,7.62,166.8,1.73c10.28,6.93,20.44,10.5,36.53,11.9c30.18,3.45,43.68,3,44.05,2.2c0.86-1.86-13.04-6.99-26.8-17.43c53.72-3.97,80.71-6.09,99.26-25.36C520.97,439.63,523.34,389.67,509.79,360.43z M121.02,416.63c-23.47-100.45,127.69,29.31,178.19,60.24C297.99,478.14,141.09,502.5,121.02,416.63z M276.09,398.9c-19-2.9-14.03-31.91,5.06-28.44C300.05,373.43,295.13,402.26,276.09,398.9z"/>
</svg>